# xmcd CD database file
#
# Track frame offsets:
#	150
#	12952
#	26667
#	39965
#	55557
#	70377
#	84877
#	100750
#	116377
#	128510
#	140600
#	156285
#	168500
#	183727
#	195787
#	212220
#	227892
#	258510
#
# Disc length: 4440 seconds
#
# Revision: 0
# Processed by: cddbd v1.5.1PL2 Copyright (c) Steve Scherf et al.
# Submitted via: CDex 1.51
#
DISCID=ea115612
DTITLE=Various Artist - Disneymania Presents WOW! Christmas
DYEAR=2004
DGENRE=Rock
TTITLE0=Winter Wonderland
TTITLE1=Santa Claus Lane (North Pole Mix)
TTITLE2=Dear Santa
TTITLE3=I Love Christmas
TTITLE4=Santa Claus Is Coming to Town
TTITLE5=Sleigh Ride
TTITLE6=Toy Town
TTITLE7=One Way or Another
TTITLE8=Jingle Bell Rock
TTITLE9=Run Rudolph Run
TTITLE10=My Christmas Wish
TTITLE11=Christmas Past, Present and Future
TTITLE12=Have Yourself a Merry Little Christmas
TTITLE13=Why Doesn't Santa Like Me？
TTITLE14=White Christmas
TTITLE15=Wild Christmas
TTITLE16=Circle of Life (Christmas Version)
TTITLE17=CCCD
EXTD=YEAR: 2004
EXTT0=
EXTT1=
EXTT2=
EXTT3=
EXTT4=
EXTT5=
EXTT6=
EXTT7=
EXTT8=
EXTT9=
EXTT10=
EXTT11=
EXTT12=
EXTT13=
EXTT14=
EXTT15=
EXTT16=
EXTT17=
PLAYORDER=
